<?xml version="1.0" encoding="utf-8"?>
<!-- Generator: Adobe Illustrator 25.4.1, SVG Export Plug-In . SVG Version: 6.00 Build 0)  -->
<svg version="1.1" xmlns="http://www.w3.org/2000/svg" xmlns:xlink="http://www.w3.org/1999/xlink" x="0px" y="0px"
	 viewBox="0 0 130 130" style="enable-background:new 0 0 130 130;" xml:space="preserve">
<style type="text/css">
	.st0{fill:#F7F6F5;}
	.st1{fill:#010201;}
	.st2{fill:#FFFFFF;}
	.st3{fill-rule:evenodd;clip-rule:evenodd;fill:#FFFFFF;}
	.st4{fill-rule:evenodd;clip-rule:evenodd;fill:#010201;}
	.st5{fill:#FEFEFE;}
	.st6{fill-rule:evenodd;clip-rule:evenodd;}
	.st7{fill:#F3B200;}
	.st8{fill:url(#SVGID_1_);}
</style>
<g id="Background">
</g>
<g id="Graphic_Elements">
	<g>
		<g>
			<g>
				<g>
					<path class="st7" d="M45.68,44.72c2.71,0,5.15,0.23,7.38,0.72c2.22,0.47,4.12,1.25,5.72,2.33c1.58,1.08,2.81,2.51,3.69,4.32
						c0.86,1.78,1.29,4.01,1.29,6.64c0,2.85-0.65,5.23-1.94,7.13c-1.3,1.9-3.22,3.46-5.78,4.67c3.48,1,6.06,2.76,7.77,5.27
						c1.72,2.52,2.56,5.54,2.56,9.08c0,2.87-0.55,5.34-1.65,7.42c-1.11,2.1-2.62,3.81-4.48,5.12c-1.87,1.33-4.03,2.3-6.44,2.93
						c-2.38,0.63-4.86,0.95-7.4,0.95H19V44.72H45.68z M44.07,67.58c2.21,0,4.04-0.52,5.48-1.59c1.43-1.05,2.13-2.77,2.13-5.15
						c0-1.32-0.23-2.4-0.69-3.25c-0.48-0.85-1.12-1.51-1.92-1.97c-0.8-0.48-1.7-0.81-2.74-0.99c-1.03-0.2-2.1-0.28-3.2-0.28H31.46
						v13.22H44.07z M44.76,91.67c1.23,0,2.4-0.11,3.49-0.36c1.11-0.24,2.1-0.63,2.94-1.2c0.83-0.55,1.52-1.3,2.03-2.26
						c0.5-0.95,0.74-2.18,0.74-3.67c0-2.92-0.82-4.99-2.45-6.25c-1.63-1.24-3.81-1.86-6.5-1.86H31.46v15.58H44.76z"/>
					<path class="st7" d="M84.15,91.48c1.68,1.65,4.12,2.47,7.28,2.47c2.27,0,4.23-0.57,5.88-1.72c1.63-1.14,2.62-2.36,3.01-3.63
						h9.91c-1.59,4.93-4.01,8.45-7.31,10.57c-3.26,2.13-7.23,3.19-11.86,3.19c-3.23,0-6.13-0.52-8.74-1.55
						c-2.61-1.04-4.78-2.5-6.62-4.4c-1.79-1.91-3.17-4.17-4.16-6.83c-0.98-2.64-1.47-5.57-1.47-8.73c0-3.06,0.51-5.93,1.51-8.57
						c1.02-2.65,2.43-4.94,4.29-6.87c1.86-1.93,4.07-3.45,6.64-4.57c2.57-1.11,5.41-1.67,8.55-1.67c3.47,0,6.5,0.67,9.11,2.03
						c2.59,1.34,4.72,3.16,6.39,5.43c1.67,2.27,2.86,4.86,3.6,7.78c0.74,2.9,0.99,5.94,0.78,9.12H81.36
						C81.36,86.77,82.46,89.84,84.15,91.48z M97.08,69.95c-1.34-1.48-3.6-2.28-6.37-2.28c-1.8,0-3.29,0.3-4.48,0.92
						c-1.16,0.61-2.12,1.37-2.85,2.26c-0.73,0.91-1.22,1.86-1.51,2.89c-0.29,0.99-0.46,1.9-0.51,2.7h18.31
						C99.4,73.57,98.42,71.44,97.08,69.95z"/>
					<rect x="79.06" y="48.51" class="st7" width="22.94" height="5.59"/>
				</g>
			</g>
		</g>
	</g>
</g>
</svg>
