<?xml version="1.0" encoding="utf-8"?>
<!-- Generator: Adobe Illustrator 25.4.1, SVG Export Plug-In . SVG Version: 6.00 Build 0)  -->
<svg version="1.1" xmlns="http://www.w3.org/2000/svg" xmlns:xlink="http://www.w3.org/1999/xlink" x="0px" y="0px"
	 viewBox="0 0 60 60" style="enable-background:new 0 0 60 60;" xml:space="preserve">
<style type="text/css">
	.st0{fill:#FFFFFF;}
	.st1{fill-rule:evenodd;clip-rule:evenodd;fill:#FFFFFF;}
	.st2{fill-rule:evenodd;clip-rule:evenodd;}
	.st3{fill:#D53692;}
	.st4{fill:#006EF5;}
	.st5{fill:#FCBB45;}
	.st6{fill:#8F39CE;}
	.st7{fill:#00D95F;}
	.st8{fill:#FF0000;}
	.st9{fill:#33CCFF;}
	.st10{fill:url(#SVGID_1_);}
	.st11{fill:#337FFF;}
	.st12{fill-rule:evenodd;clip-rule:evenodd;fill:#EE1D52;}
	.st13{fill-rule:evenodd;clip-rule:evenodd;fill:#69C9D0;}
	.st14{fill:url(#SVGID_00000137105928705343077910000017719674955618545040_);}
	.st15{fill:url(#SVGID_00000089536888082700218880000001777075692159553430_);}
	.st16{fill:url(#SVGID_00000114066525882039405510000004620934983215463356_);}
	.st17{fill-rule:evenodd;clip-rule:evenodd;fill:#FF0000;}
	.st18{fill-rule:evenodd;clip-rule:evenodd;fill:#00D95F;}
	.st19{fill:none;stroke:#999999;stroke-miterlimit:10;}
	.st20{fill:none;stroke:#999999;stroke-width:0.5;stroke-miterlimit:10;stroke-dasharray:12;}
	.st21{fill:#F3B200;}
</style>
<g id="BACKGROUND">
</g>
<g id="ELEMENTS">
	<g>
		<path class="st21" d="M15.71,16.48L28,30.43c0.7,0.79,1.71,1.25,2.76,1.25c1.06,0,2.06-0.45,2.76-1.25l12.08-13.71
			c0.1-0.11,0.22-0.2,0.34-0.27c-0.51-0.22-1.08-0.35-1.67-0.35H17.25c-0.57,0-1.11,0.11-1.6,0.32
			C15.67,16.44,15.69,16.46,15.71,16.48z"/>
		<path class="st21" d="M47.81,18.06c-0.05,0.14-0.13,0.28-0.24,0.4L35.5,32.17c-1.2,1.36-2.92,2.14-4.73,2.14
			c-1.81,0-3.53-0.78-4.73-2.14L13.74,18.22c-0.02-0.03-0.04-0.06-0.06-0.09c-0.38,0.63-0.6,1.36-0.6,2.15v18.88
			c0,2.31,1.87,4.18,4.18,4.18h27.03c2.31,0,4.18-1.87,4.18-4.18V20.28C48.46,19.46,48.22,18.7,47.81,18.06z"/>
	</g>
</g>
<g id="TEXT">
</g>
</svg>
