<svg xmlns="http://www.w3.org/2000/svg" xmlns:xlink="http://www.w3.org/1999/xlink" width="128" height="128" viewBox="0 0 128 128">
  <defs>
    <clipPath id="clip-FavIcon">
      <rect width="128" height="128"/>
    </clipPath>
  </defs>
  <g id="FavIcon" clip-path="url(#clip-FavIcon)">
    <rect width="128" height="128" fill="#fff"/>
    <path id="Trazado_24" data-name="Trazado 24" d="M0,0H128V128H0Z" fill="#161615"/>
    <path id="Sustracción_1" data-name="Sustracción 1" d="M750.45,340.349a26.062,26.062,0,0,1-9.3-1.683,24.428,24.428,0,0,1-7.716-4.709,23.931,23.931,0,0,1-5.453-7.223,25.322,25.322,0,0,1-2.507-9.226h7.779c.96,9.432,8.03,16.019,17.193,16.019a16.358,16.358,0,0,0,14.433-7.683l5.817,4.092a22.348,22.348,0,0,1-8.292,7.63A25.281,25.281,0,0,1,750.45,340.349Zm13.716-36.193h0c-2.067-3.21-6.126-7.036-13.714-7.036a18.2,18.2,0,0,0-5.222.743v-7.056a26.836,26.836,0,0,1,5.222-.508,29.787,29.787,0,0,1,6.142.606,22.249,22.249,0,0,1,5.292,1.818,20,20,0,0,1,4.46,3.029,22.354,22.354,0,0,1,3.637,4.242l-5.815,4.165Z" transform="translate(-684.089 -251.325)" fill="#f3b200"/>
  </g>
</svg>
