<svg xmlns="http://www.w3.org/2000/svg" xmlns:xlink="http://www.w3.org/1999/xlink" width="128" height="128" viewBox="0 0 128 128">
  <defs>
    <clipPath id="clip-FavIcon">
      <rect width="128" height="128"/>
    </clipPath>
  </defs>
  <g id="FavIcon" clip-path="url(#clip-FavIcon)">
    <rect width="128" height="128" fill="#fff"/>
    <path id="Trazado_24" data-name="Trazado 24" d="M0,0H128V128H0Z" fill="#161615"/>
    <path id="Sustracción_1" data-name="Sustracción 1" d="M759.671,358.828a35.685,35.685,0,0,1-12.73-2.3,33.448,33.448,0,0,1-10.565-6.448,32.767,32.767,0,0,1-7.466-9.89,34.671,34.671,0,0,1-3.432-12.632h10.651c1.314,12.914,10.994,21.934,23.542,21.934,8.507,0,14.971-3.442,19.762-10.52l7.964,5.6a30.6,30.6,0,0,1-11.353,10.447A34.615,34.615,0,0,1,759.671,358.828Zm18.78-49.556h0c-2.83-4.4-8.388-9.633-18.778-9.633a24.919,24.919,0,0,0-7.15,1.018V291a36.747,36.747,0,0,1,7.15-.7,40.784,40.784,0,0,1,8.41.829,30.462,30.462,0,0,1,7.246,2.489,27.391,27.391,0,0,1,6.107,4.148,30.611,30.611,0,0,1,4.979,5.809l-7.962,5.7Z" transform="translate(-692.438 -260.566)" fill="#f3b200"/>
  </g>
</svg>
