<?xml version="1.0" encoding="utf-8"?>
<!-- Generator: Adobe Illustrator 25.4.1, SVG Export Plug-In . SVG Version: 6.00 Build 0)  -->
<svg version="1.1" xmlns="http://www.w3.org/2000/svg" xmlns:xlink="http://www.w3.org/1999/xlink" x="0px" y="0px"
	 viewBox="0 0 130 130" style="enable-background:new 0 0 130 130;" xml:space="preserve">
<style type="text/css">
	.st0{fill:#F7F6F5;}
	.st1{fill:#010201;}
	.st2{fill:#FFFFFF;}
	.st3{fill-rule:evenodd;clip-rule:evenodd;fill:#FFFFFF;}
	.st4{fill-rule:evenodd;clip-rule:evenodd;fill:#010201;}
	.st5{fill:#FEFEFE;}
	.st6{fill-rule:evenodd;clip-rule:evenodd;}
	.st7{fill:#F3B200;}
	.st8{fill:url(#SVGID_1_);}
</style>
<g id="Background">
</g>
<g id="Graphic_Elements">
	<g>
		<path class="st7" d="M55.57,102.37c0-4.62,0-9.24,0-13.95c-0.62,0.08-1.18,0.18-1.74,0.21c-3.97,0.19-7.02-1.43-9.26-4.68
			c-0.59-0.86-1.22-1.69-1.9-2.48c-0.74-0.87-1.7-1.38-2.94-1.43c-0.14-1.61-0.29-3.22-0.44-4.88c2.08-0.19,3.92,0.36,5.44,1.61
			c1.24,1.02,2.26,2.3,3.34,3.5c0.66,0.73,1.14,1.65,1.87,2.29c1.65,1.44,3.58,1.33,5.52,0.65c0.15-0.05,0.32-0.25,0.34-0.39
			c0.26-2.09,1.45-3.71,2.64-5.34c0.05-0.06,0.06-0.14,0.1-0.22c-1.68-0.44-3.36-0.78-4.99-1.31C47.47,73.95,43,70.17,41.18,63.91
			c-1.78-6.12-0.74-11.87,3.06-17.05c0.38-0.52,0.47-0.97,0.3-1.59c-0.97-3.43-0.62-6.79,0.64-10.03c3.66-0.07,6.6,1.7,9.5,3.5
			c1.02,0.63,1.93,0.76,3.09,0.46c5.36-1.37,10.73-1.26,16.08,0.13c0.69,0.18,1.26,0.13,1.87-0.26c0.93-0.59,1.9-1.11,2.86-1.64
			c2.23-1.24,4.52-2.27,7.25-2.16c0.9,2.36,1.34,4.9,1.08,7.55c-0.04,0.41,0,0.86-0.17,1.22c-0.65,1.45-0.22,2.61,0.64,3.87
			c2.08,3.03,3.32,6.39,3.35,10.11c0.06,7.89-4.47,14.59-11.85,17.38c-2.07,0.78-4.24,1.28-6.43,1.93c0.24,0.34,0.51,0.77,0.83,1.17
			c1.58,1.93,2.15,4.16,2.14,6.61c-0.03,5.75-0.01,11.51-0.01,17.26C68.78,102.37,62.18,102.37,55.57,102.37z"/>
	</g>
</g>
</svg>
