<?xml version="1.0" encoding="utf-8"?>
<!-- Generator: Adobe Illustrator 25.4.1, SVG Export Plug-In . SVG Version: 6.00 Build 0)  -->
<svg version="1.1" xmlns="http://www.w3.org/2000/svg" xmlns:xlink="http://www.w3.org/1999/xlink" x="0px" y="0px"
	 viewBox="0 0 130 130" style="enable-background:new 0 0 130 130;" xml:space="preserve">
<style type="text/css">
	.st0{fill:#F7F6F5;}
	.st1{fill:#010201;}
	.st2{fill:#FFFFFF;}
	.st3{fill-rule:evenodd;clip-rule:evenodd;fill:#FFFFFF;}
	.st4{fill-rule:evenodd;clip-rule:evenodd;fill:#010201;}
	.st5{fill:#FEFEFE;}
	.st6{fill-rule:evenodd;clip-rule:evenodd;}
	.st7{fill:#F3B200;}
	.st8{fill:url(#SVGID_1_);}
</style>
<g id="Background">
</g>
<g id="Graphic_Elements">
	<g>
		<g>
			<g>
				<path class="st7" d="M71.24,56.28c1.11-1.25,2.02-2.51,3.16-3.58c3.5-3.3,7.64-4.96,12.48-4.92c2.66,0.02,5.28,0.21,7.84,0.95
					c5.86,1.69,9.26,5.73,10.89,11.45c1.22,4.29,1.44,8.7,1.45,13.12c0.02,9.32-0.03,18.65-0.01,27.97c0,0.87-0.24,1.1-1.1,1.1
					c-4.8-0.04-9.61-0.04-14.41,0c-0.85,0.01-1.03-0.25-1.03-1.05c0.03-8.87,0.03-17.74,0-26.62c-0.01-2.22-0.15-4.45-0.77-6.61
					c-1.15-3.98-4-6.01-8.17-5.79c-5.7,0.3-8.66,3.12-9.38,8.91c-0.17,1.38-0.26,2.77-0.25,4.16c0.01,8.63-0.01,17.26,0.02,25.89
					c0,0.86-0.21,1.11-1.09,1.11c-4.84-0.04-9.68-0.04-14.52,0c-0.78,0.01-1-0.2-1-0.99c0.02-17.08,0.02-34.17,0-51.25
					c0-0.85,0.28-1.04,1.08-1.04c4.59,0.03,9.19,0.04,13.78,0c0.85-0.01,1.06,0.27,1.05,1.07C71.21,52.19,71.24,54.23,71.24,56.28z"
					/>
				<path class="st7" d="M44.92,75.8c0,8.45-0.01,16.9,0.02,25.35c0,0.94-0.23,1.22-1.2,1.21c-4.8-0.05-9.6-0.04-14.41-0.01
					c-0.77,0.01-1-0.19-1-0.98c0.02-17.11,0.02-34.22,0-51.34c0-0.71,0.17-0.96,0.92-0.96c4.87,0.03,9.74,0.04,14.61-0.01
					c0.94-0.01,1.06,0.35,1.06,1.16C44.91,58.76,44.92,67.28,44.92,75.8z"/>
				<path class="st7" d="M46.24,32.13c0.01,5.31-4.3,9.63-9.6,9.63c-5.23,0-9.57-4.32-9.59-9.55c-0.02-5.28,4.32-9.63,9.61-9.63
					C41.92,22.59,46.24,26.9,46.24,32.13z"/>
			</g>
		</g>
	</g>
</g>
</svg>
