<?xml version="1.0" encoding="utf-8"?>
<!-- Generator: Adobe Illustrator 25.4.1, SVG Export Plug-In . SVG Version: 6.00 Build 0)  -->
<svg version="1.1" xmlns="http://www.w3.org/2000/svg" xmlns:xlink="http://www.w3.org/1999/xlink" x="0px" y="0px"
	 viewBox="0 0 60 60" style="enable-background:new 0 0 60 60;" xml:space="preserve">
<style type="text/css">
	.st0{fill:#FFFFFF;}
	.st1{fill-rule:evenodd;clip-rule:evenodd;fill:#FFFFFF;}
	.st2{fill-rule:evenodd;clip-rule:evenodd;}
	.st3{fill:#D53692;}
	.st4{fill:#006EF5;}
	.st5{fill:#FCBB45;}
	.st6{fill:#8F39CE;}
	.st7{fill:#00D95F;}
	.st8{fill:#FF0000;}
	.st9{fill:#33CCFF;}
	.st10{fill:url(#SVGID_1_);}
	.st11{fill:#337FFF;}
	.st12{fill-rule:evenodd;clip-rule:evenodd;fill:#EE1D52;}
	.st13{fill-rule:evenodd;clip-rule:evenodd;fill:#69C9D0;}
	.st14{fill:url(#SVGID_00000103972593266845136730000008708442384348462985_);}
	.st15{fill:url(#SVGID_00000178900791061347281330000016829327130698136196_);}
	.st16{fill:url(#SVGID_00000115514901728305042170000004409567827209706933_);}
	.st17{fill-rule:evenodd;clip-rule:evenodd;fill:#FF0000;}
	.st18{fill-rule:evenodd;clip-rule:evenodd;fill:#00D95F;}
	.st19{fill:none;stroke:#999999;stroke-miterlimit:10;}
	.st20{fill:none;stroke:#999999;stroke-width:0.5;stroke-miterlimit:10;stroke-dasharray:12;}
	.st21{fill:#F3B200;}
</style>
<g id="BACKGROUND">
</g>
<g id="ELEMENTS">
	<g>
		<path class="st21" d="M30,12.71c-7.37,0-13.35,5.98-13.35,13.35c0,6.29,9.71,17.66,12.57,20.88c0.42,0.47,1.15,0.47,1.57,0
			c2.86-3.22,12.57-14.59,12.57-20.88C43.35,18.69,37.37,12.71,30,12.71z M30,32.02c-3.64,0-6.6-2.96-6.6-6.6
			c0-3.64,2.96-6.6,6.6-6.6c3.64,0,6.6,2.96,6.6,6.6C36.6,29.06,33.64,32.02,30,32.02z"/>
	</g>
</g>
<g id="TEXT">
</g>
</svg>
