<svg xmlns="http://www.w3.org/2000/svg" width="148.72" height="43.549" viewBox="0 0 148.72 43.549">
  <g id="Componente_2_1" data-name="Componente 2 1" transform="translate(-728.478 -290.245)">
    <g id="Grupo_19" data-name="Grupo 19" transform="translate(3)">
      <path id="Sustracci칩n_1" data-name="Sustracci칩n 1" d="M791.9,333.789a22,22,0,0,1-15.508-6.138,20.763,20.763,0,0,1-4.676-6.889,23.2,23.2,0,0,1,0-17.488,20.764,20.764,0,0,1,4.676-6.889,22.592,22.592,0,0,1,30.962,0,20.807,20.807,0,0,1,4.668,6.889,23.2,23.2,0,0,1,0,17.488,20.794,20.794,0,0,1-4.668,6.889A21.9,21.9,0,0,1,791.9,333.789Zm0-37.615c-8.782,0-15.157,6.663-15.157,15.844s6.376,15.844,15.157,15.844c8.747,0,15.1-6.663,15.1-15.844S800.645,296.174,791.9,296.174Zm-44.726,37.615a22.64,22.64,0,0,1-8.076-1.462,21.221,21.221,0,0,1-6.7-4.091,20.789,20.789,0,0,1-4.737-6.275,22,22,0,0,1-2.177-8.014h6.758c.834,8.193,6.975,13.916,14.936,13.916a14.211,14.211,0,0,0,12.538-6.674l5.053,3.555a19.415,19.415,0,0,1-7.2,6.628A21.962,21.962,0,0,1,747.172,333.789Zm95.27-1.9h0V325.4c4.6-2.482,7.031-7.11,7.031-13.383,0-9.792-5.911-15.408-16.219-15.408h-4.616v17.336h-6.612V290.81h11.665a27.3,27.3,0,0,1,9.276,1.524,20.531,20.531,0,0,1,7.145,4.309,18.976,18.976,0,0,1,4.6,6.692,22.749,22.749,0,0,1,1.625,8.682,23.679,23.679,0,0,1-.958,6.819,19.661,19.661,0,0,1-2.757,5.7,18.909,18.909,0,0,1-4.372,4.411A21.3,21.3,0,0,1,842.442,331.894Zm-83.355-29.546h0c-1.8-2.788-5.322-6.112-11.914-6.112a15.81,15.81,0,0,0-4.537.646v-6.129a23.315,23.315,0,0,1,4.537-.442,25.877,25.877,0,0,1,5.335.526,19.327,19.327,0,0,1,4.6,1.579,17.378,17.378,0,0,1,3.875,2.632,19.423,19.423,0,0,1,3.159,3.685l-5.052,3.618Z" fill="#fff"/>
      <path id="Rect치ngulo_30" data-name="Rect치ngulo 30" d="M0,0H9.073V9.073H0Z" transform="translate(865.125 324.721)" fill="#f3b200"/>
    </g>
  </g>
</svg>
