<svg id="Capa_1" data-name="Capa 1" xmlns="http://www.w3.org/2000/svg" viewBox="0 0 108.26 118.13"><defs><style>.cls-1{fill:#f3b200;}</style></defs><path class="cls-1" d="M10.18,67.86c0-23.07,17.73-39.67,39.89-39.67s39.79,16.6,39.79,39.67-17.74,39.67-39.79,39.67S10.18,90.94,10.18,67.86Zm67.4,0C77.58,51.38,66.21,39,50.07,39S22.45,51.38,22.45,67.86,33.93,96.73,50.07,96.73,77.58,84.34,77.58,67.86Z"/><path class="cls-1" d="M77.58,20.64a9.34,9.34,0,0,1,18.68,0,9.34,9.34,0,0,1-18.68,0Zm15.81,0c0-3.86-2.67-6.77-6.45-6.77a6.43,6.43,0,0,0-6.48,6.77,6.42,6.42,0,0,0,6.48,6.77C90.72,27.41,93.39,24.51,93.39,20.64Z"/><circle class="cls-1" cx="86.76" cy="20.73" r="7.46"/></svg>