<?xml version="1.0" encoding="utf-8"?>
<!-- Generator: Adobe Illustrator 25.4.1, SVG Export Plug-In . SVG Version: 6.00 Build 0)  -->
<svg version="1.1" id="Capa_1" xmlns="http://www.w3.org/2000/svg" xmlns:xlink="http://www.w3.org/1999/xlink" x="0px" y="0px"
	 viewBox="0 0 116.97 126.28" style="enable-background:new 0 0 116.97 126.28;" xml:space="preserve">
<style type="text/css">
	.st0{fill:none;stroke:#4F7286;stroke-width:0.4;stroke-miterlimit:10;}
	.st1{fill:#F3B200;}
</style>
<g>
	<g>
		<g>
			<path class="st1" d="M84.2,19.95c0-6.93,5.32-11.91,11.98-11.91c6.62,0,11.94,4.98,11.94,11.91s-5.32,11.91-11.94,11.91
				C89.52,31.86,84.2,26.88,84.2,19.95z M104.43,19.95c0-4.95-3.41-8.67-8.26-8.67c-4.85,0-8.29,3.72-8.29,8.67
				c0,4.95,3.45,8.67,8.29,8.67C101.02,28.62,104.43,24.9,104.43,19.95z"/>
		</g>
	</g>
	<g>
		<g>
			<g>
				<path class="st1" d="M10.05,73.11c0-24.99,19.2-42.96,43.2-42.96c23.88,0,43.08,17.97,43.08,42.96s-19.2,42.96-43.08,42.96
					C29.25,116.06,10.05,98.09,10.05,73.11z M83.04,73.11c0-17.85-12.31-31.26-29.79-31.26S23.35,55.26,23.35,73.11
					c0,17.85,12.43,31.26,29.91,31.26S83.04,90.96,83.04,73.11z"/>
			</g>
		</g>
		<g>
			<circle class="st1" cx="95.95" cy="20.06" r="9.54"/>
		</g>
	</g>
</g>
</svg>
