<svg id="Capa_1" data-name="Capa 1" xmlns="http://www.w3.org/2000/svg" viewBox="0 0 126.38 72.26"><defs><style>.cls-1{fill:#f3b200;}</style></defs><path class="cls-1" d="M63.22,7c26.23,0,43.25,12.74,54,23.84L109,41C96.76,30.91,83.27,24.86,63.22,24.86S29.68,30.91,17.45,41L9.25,30.79C20,19.69,36.86,7,63.22,7Z"/><path class="cls-1" d="M51.21,50.43A11.78,11.78,0,1,1,63,62.16,11.52,11.52,0,0,1,51.21,50.43Zm19.92,0c0-4.87-3.36-8.53-8.13-8.53s-8.16,3.66-8.16,8.53S58.23,59,63,59,71.13,55.3,71.13,50.43Z"/><circle class="cls-1" cx="63.24" cy="50.43" r="8.64"/></svg>